<?xml version="1.0" encoding="UTF-8" standalone="no"?>
<svg
   xmlns:dc="http://purl.org/dc/elements/1.1/"
   xmlns:cc="http://creativecommons.org/ns#"
   xmlns:rdf="http://www.w3.org/1999/02/22-rdf-syntax-ns#"
   xmlns:svg="http://www.w3.org/2000/svg"
   xmlns="http://www.w3.org/2000/svg"
   version="1.1"
   id="svg3914"
   viewBox="0 0 52.000001 48.000001"
   height="48"
   width="52">
  <defs
     id="defs3916">
    <clipPath
       clipPathUnits="userSpaceOnUse"
       id="clipPath3973">
      <path
         d="m 0,2.73047 3680,0 0,3370.00003 -3680,0 L 0,2.73047 Z"
         id="path3975" />
    </clipPath>
  </defs>
  <metadata
     id="metadata3919">
    <rdf:RDF>
      <cc:Work
         rdf:about="">
        <dc:format>image/svg+xml</dc:format>
        <dc:type
           rdf:resource="http://purl.org/dc/dcmitype/StillImage" />
        <dc:title></dc:title>
      </cc:Work>
    </rdf:RDF>
  </metadata>
  <g
     transform="translate(0,-1004.3622)"
     id="layer1">
    <g
       id="g3965"
       transform="matrix(0.14150122,0,0,-0.14150122,0,1052.5037)">
      <g
         id="g3967"
         transform="scale(0.1,0.1)">
        <g
           id="g3969">
          <g
             id="g3971"
             clip-path="url(#clipPath3973)">
            <path
               d="m 3658.87,2665.66 -1217.11,702.78 c -9.88,5.7 -22.11,5.74 -31.99,0 L 711.211,2387.73 c -9.922,-5.7 -16.012,-16.28 -16.012,-27.73 l 0,-493.94 -338.871,-192.78 c -4.566,-2.58 -11.289,-10.43 -11.289,-10.43 L 4.87891,1118.28 C 1.67969,1113.2 0,1107.34 0,1101.33 L 0,581.949 C 0,570.512 6.08984,559.961 15.9805,554.262 L 941.602,19.4492 c 4.918,-2.8476 10.468,-4.289 15.976,-4.289 5.543,0 11.051,1.4414 16.012,4.289 1.922,1.1016 202.78,116.4098 202.78,116.4098 12.69,-47.1871 38.79,-83.7106 76.33,-105.3902 C 1276.37,16.8008 1302.85,10 1331.05,10 c 33.6,0 69.61,9.6484 106.06,28.9102 62.23,32.8515 119.37,90.5388 160.9,162.4998 39.26,68 60.51,141.75 60.47,209.02 0,0 157.3,89.609 158.71,90.59 0,0 109.65,-63.872 111.21,-64.77 4.92,-2.891 10.47,-4.301 15.98,-4.301 5.54,0 11.05,1.41 16.01,4.301 l 764.73,441.48 c 14.02,-40.46 38.71,-72.101 71.91,-91.32 23.67,-13.68 50.2,-20.469 78.4,-20.469 33.59,0 69.57,9.649 106.02,28.899 62.26,32.859 119.37,90.551 160.89,162.469 36.68,63.511 57.7,132.341 60.2,196.051 l 456.33,263.44 c 9.88,5.7 16.01,16.29 16.01,27.69 l 0,1193.44 c 0,11.45 -6.09,21.99 -16.01,27.73 z M 2425.74,3303.79 3578.87,2637.93 1944.38,1694.34 791.211,2360.04 2425.74,3303.79 Z m -1666.56,-999.18 1153.2,-665.7 0,-1118.988 -81.44,47.027 0,829.261 c 0,11.41 -6.1,21.99 -15.98,27.7 l -925.698,534.33 c -9.852,5.67 -21.961,5.71 -31.801,0.08 l -98.242,-55.86 0,402.15 -0.039,0 z m 113.98,-410.98 861.45,-497.22 -436.72,-248.44 -861.37,497.3 436.64,248.36 z M 1167.62,204.531 989.609,103.09 l 0,75.781 187.151,106.641 c -6.17,-27.5 -9.3,-54.731 -9.14,-80.981 z m -784.89,1397.889 870.32,-502.46 -59.03,-94.53 -870.149,502.77 58.859,94.22 z M 1160.08,951.129 940.941,600.27 70.7813,1103.05 289.961,1453.91 1160.08,951.129 Z M 925.59,535.23 l 0,-47.339 -861.6095,497.808 0,47.351 L 925.59,535.23 Z M 63.9805,911.801 218.09,822.77 l 0,-186.68 -154.1095,89.031 0,186.68 z M 282.07,785.781 705.352,541.25 l 0,-186.68 -423.282,244.532 0,186.679 z m 487.27,-281.519 156.25,-90.282 0,-186.671 -156.25,90.269 0,186.684 z m 551.25,583.008 214.18,121.83 0,-286.991 -492.62,-280.589 278.44,445.75 z M 63.9805,600.391 l 0,50.82 861.6095,-497.813 0,-50.82 L 63.9805,600.391 Z M 1542.58,233.398 c -35.59,-61.636 -83.63,-110.589 -135.35,-137.8863 -46.88,-24.7734 -90.39,-28.1719 -122.54,-9.6133 -32.15,18.5506 -50.94,57.9296 -52.97,110.9416 -2.19,58.43 16.17,124.531 51.76,186.172 69.57,120.468 187.65,188.047 257.89,147.5 32.15,-18.563 50.97,-57.973 52.97,-110.942 2.22,-58.441 -16.18,-124.531 -51.76,-186.172 z m 224.37,312.5 -116.91,-66.597 c -12.58,47.808 -38.79,84.758 -76.68,106.64 C 1469.65,645.82 1317.97,570.738 1228.05,415 c -7.19,-12.422 -13.71,-25.078 -19.65,-37.809 l -218.791,-124.652 0,285.391 592.971,337.769 c 10,5.672 16.17,16.289 16.17,27.821 l 0,341.95 168.2,95.7 0,-795.272 z m 1319.96,443.403 c -35.54,-61.602 -83.63,-110.59 -135.31,-137.852 -46.91,-24.769 -90.43,-28.168 -122.58,-9.609 -27.14,15.66 -40.5,43.238 -47.03,68.711 l 69.22,39.961 c 7.07,-14.774 17.23,-23.051 24.81,-27.383 9.72,-5.59 20,-8.168 30.58,-8.168 45.43,0 96.29,47.148 129.1,103.949 9.77,16.87 17.82,34.57 23.87,51.87 l 74.34,42.93 c -7.58,-41.13 -23.56,-83.83 -47,-124.409 z m -179.41,-6.289 38.98,22.498 c -16.79,-17.229 -31.32,-25.311 -38.04,-26.291 -0.32,0.859 -0.63,2.23 -0.94,3.793 z m -931.09,-463.633 0,1119.531 1634.45,943.59 0,-1119.53 -1634.45,-943.591 z"
               style="fill:#40c2f3;fill-opacity:1;fill-rule:nonzero;stroke:none"
               id="path3977" />
            <path
               d="m 1494.41,449.18 c -51.4,29.648 -119.21,-25.7 -159.68,-95.782 -19.65,-34.058 -32.27,-70.039 -35.51,-101.328 -5.67,-54.261 17.89,-76.441 32.42,-84.84 6.8,-3.91 17.23,-8.05 30.9,-8.05 15.51,0 35.31,5.351 58.83,22.379 25.43,18.441 50.31,47.39 69.96,81.453 40.43,70.039 54.49,156.476 3.08,186.168 z M 1435.9,295 c -28.63,-49.57 -60.94,-70.191 -71.92,-71.719 -4.14,10.278 -2.46,48.559 26.18,98.129 28.63,49.57 60.93,70.192 71.87,71.719 4.18,-10.238 2.5,-48.559 -26.13,-98.129 z"
               style="fill:#40c2f3;fill-opacity:1;fill-rule:nonzero;stroke:none"
               id="path3979" />
          </g>
        </g>
      </g>
    </g>
  </g>
</svg>
