<?xml version="1.0" encoding="UTF-8" standalone="no"?>
<svg
   xmlns:dc="http://purl.org/dc/elements/1.1/"
   xmlns:cc="http://creativecommons.org/ns#"
   xmlns:rdf="http://www.w3.org/1999/02/22-rdf-syntax-ns#"
   xmlns:svg="http://www.w3.org/2000/svg"
   xmlns="http://www.w3.org/2000/svg"
   version="1.1"
   id="svg3914"
   viewBox="0 0 35.000001 32.000001"
   height="32"
   width="35">
  <defs
     id="defs3916">
    <clipPath
       clipPathUnits="userSpaceOnUse"
       id="clipPath3973">
      <path
         d="m 0,2.73047 3680,0 0,3370.00003 -3680,0 L 0,2.73047 Z"
         id="path3975" />
    </clipPath>
    <clipPath
       clipPathUnits="userSpaceOnUse"
       id="clipPath4198">
      <path
         d="m 0,0.578125 2320,0 0,1569.999975 -2320,0 L 0,0.578125 Z"
         id="path4200" />
    </clipPath>
    <clipPath
       clipPathUnits="userSpaceOnUse"
       id="clipPath4265">
      <path
         d="m 0,7.58203 1230,0 0,1139.99997 -1230,0 L 0,7.58203 Z"
         id="path4267" />
    </clipPath>
  </defs>
  <metadata
     id="metadata3919">
    <rdf:RDF>
      <cc:Work
         rdf:about="">
        <dc:format>image/svg+xml</dc:format>
        <dc:type
           rdf:resource="http://purl.org/dc/dcmitype/StillImage" />
        <dc:title></dc:title>
      </cc:Work>
    </rdf:RDF>
  </metadata>
  <g
     transform="translate(0,-1020.3622)"
     id="layer1">
    <g
       style="fill:#000000"
       id="g4257"
       transform="matrix(0.28565133,0,0,-0.28565135,0,1052.6479)">
      <g
         style="fill:#000000"
         id="g4259"
         transform="scale(0.1,0.1)">
        <g
           style="fill:#000000"
           id="g4261">
          <g
             style="fill:#000000"
             id="g4263"
             clip-path="url(#clipPath4265)">
            <path
               d="M 1114.96,10 110.309,10 C 49.4883,10 0,59.4883 0,120.309 L 0,885.66 c 0,60.86 49.4883,110.36 110.309,110.36 l 348.171,0 c 0.739,0.351 1.52,0.621 2.34,0.89 l 472.809,149.73 c 5.242,1.64 10.902,1.09 15.711,-1.56 4.801,-2.62 8.281,-7.15 9.68,-12.46 l 35.589,-136.6 120.351,0 c 60.82,0 110.31,-49.5 110.31,-110.36 l 0,-765.351 C 1225.27,59.4883 1175.78,10 1114.96,10 Z M 110.309,956.02 C 71.5586,956.02 40,924.449 40,885.66 L 40,120.309 C 40,81.5586 71.5586,50 110.309,50 l 1004.651,0 c 38.75,0 70.31,31.5586 70.31,70.309 l 0,237.5 -372.54,0 c -48.589,0 -88.16,39.531 -88.16,88.171 l 0,114.059 c 0,48.59 39.532,88.16 88.16,88.16 l 372.54,0 0,237.461 c 0,38.789 -31.56,70.36 -70.31,70.36 l -1004.651,0 z M 812.73,608.199 c -26.558,0 -48.16,-21.597 -48.16,-48.16 l 0,-114.098 c 0,-26.531 21.602,-48.132 48.16,-48.132 l 372.54,0 0,210.39 -372.54,0 z m -222.3,387.821 362.851,0 -27.66,106.13 L 590.43,996.02 Z M 876.559,431.91 c -39.18,0 -71.09,31.879 -71.09,71.102 0,39.218 31.91,71.09 71.09,71.09 39.222,0 71.14,-31.872 71.14,-71.09 0,-39.223 -31.918,-71.102 -71.14,-71.102 z m 0,102.192 c -17.149,0 -31.09,-13.942 -31.09,-31.09 0,-17.153 13.941,-31.102 31.09,-31.102 17.152,0 31.14,13.949 31.14,31.102 0,17.148 -13.988,31.09 -31.14,31.09 z"
               style="fill:#000000;fill-opacity:1;fill-rule:nonzero;stroke:none"
               id="path4269" />
          </g>
        </g>
      </g>
    </g>
  </g>
</svg>
