<?xml version="1.0" encoding="UTF-8" standalone="no"?>
<svg
   xmlns:dc="http://purl.org/dc/elements/1.1/"
   xmlns:cc="http://creativecommons.org/ns#"
   xmlns:rdf="http://www.w3.org/1999/02/22-rdf-syntax-ns#"
   xmlns:svg="http://www.w3.org/2000/svg"
   xmlns="http://www.w3.org/2000/svg"
   version="1.1"
   id="svg2"
   viewBox="0 0 45 45.000001"
   height="45"
   width="45">
  <defs
     id="defs4">
    <clipPath
       clipPathUnits="userSpaceOnUse"
       id="clipPath4171">
      <path
         d="m 0,5.28906 660,0 0,660 -660,0 0,-660 z"
         id="path4173" />
    </clipPath>
  </defs>
  <metadata
     id="metadata7">
    <rdf:RDF>
      <cc:Work
         rdf:about="">
        <dc:format>image/svg+xml</dc:format>
        <dc:type
           rdf:resource="http://purl.org/dc/dcmitype/StillImage" />
        <dc:title></dc:title>
      </cc:Work>
    </rdf:RDF>
  </metadata>
  <g
     transform="translate(0,-1007.3622)"
     id="layer1">
    <g
       style="fill:#40c2f3;fill-opacity:1"
       id="g4163"
       transform="matrix(0.68294608,0,0,-0.68294608,0,1053.0439)">
      <g
         style="fill:#40c2f3;fill-opacity:1"
         id="g4165"
         transform="scale(0.1,0.1)">
        <g
           style="fill:#40c2f3;fill-opacity:1"
           id="g4167">
          <g
             style="fill:#40c2f3;fill-opacity:1"
             id="g4169"
             clip-path="url(#clipPath4171)">
            <path
               d="m 658.91,487.289 c 0,0.27 -1.609,0.539 -1.64,0.781 -0.04,0.43 -0.821,0.86 -0.942,1.25 -0.078,0.352 -0.629,0.621 -0.738,0.942 -0.16,0.308 -0.469,0.66 -0.629,0.968 -0.191,0.309 -0.551,0.59 -0.742,0.86 -0.239,0.269 -0.469,0.551 -0.699,0.781 -0.282,0.277 -0.59,0.469 -0.899,0.707 -0.242,0.152 -0.43,0.352 -0.672,0.5 -0.039,0 -0.109,0.043 -0.148,0.043 -0.082,0.039 -0.121,0.117 -0.199,0.16 l -187.34,98.547 -21.961,11.922 c -0.66,0.309 -1.321,0.539 -2.031,0.738 l -111.911,58.871 c -2.339,1.25 -5.16,1.25 -7.5,-0.039 L 4.10156,494.238 c -0.04297,-0.039 -0.08203,-0.078 -0.15234,-0.078 -0.03906,-0.039 -0.07813,-0.039 -0.12109,-0.082 -0.23829,-0.148 -0.42969,-0.348 -0.66797,-0.5 -0.3086,-0.238 -0.6211,-0.43 -0.89063,-0.707 -0.23828,-0.23 -0.39062,-0.512 -0.58984,-0.742 -0.23047,-0.309 -0.50781,-0.59 -0.699221,-0.899 -0.160156,-0.269 -0.28125,-0.582 -0.390625,-0.902 -0.160156,-0.348 -0.320313,-0.656 -0.429688,-1.008 -0.082031,-0.351 1.398434,-0.742 1.359374,-1.14 -0.03906,-0.309 1.3711,-0.578 1.3711,-0.891 l 0,-284.57 -2.89063,0 c 0,-8.008 1.32813,-8.321 3.91016,-9.809 L 320.699,11.7383 c 1.211,-0.6602 2.582,-1.75783 3.949,-1.75783 1.332,0 2.653,0 3.872,0.66793 L 651.762,193.07 c 2.617,1.442 3.976,1.641 3.976,9.649 l 3.172,0 0,284.57 z m -639.9998,-13.828 95.9688,-56.723 0,-104.527 27.152,7.5 22.231,-36.992 36.129,8.98 34.257,-47.5 1.25,103.871 78.981,-45.308 0,-271.7229 -295.9688,170.6599 0,271.762 z m 311.9878,-170.742 311.993,170.859 0,-271.84 -311.993,-170.8591 0,271.8401 z M 324.691,316.621 245.699,361.43 548.98,530.219 631.09,487.012 324.691,316.621 Z M 324.648,648.219 421.25,597.398 119.801,432.871 24.4102,487.012 324.648,648.219 Z"
               style="fill:#40c2f3;fill-opacity:1;fill-rule:nonzero;stroke:none"
               id="path4175" />
          </g>
        </g>
      </g>
    </g>
  </g>
</svg>
