<?xml version="1.0" encoding="UTF-8" standalone="no"?>
<svg
   xmlns:dc="http://purl.org/dc/elements/1.1/"
   xmlns:cc="http://creativecommons.org/ns#"
   xmlns:rdf="http://www.w3.org/1999/02/22-rdf-syntax-ns#"
   xmlns:svg="http://www.w3.org/2000/svg"
   xmlns="http://www.w3.org/2000/svg"
   version="1.1"
   id="svg2"
   viewBox="0 0 38 39.000001"
   height="39"
   width="38">
  <defs
     id="defs4">
    <clipPath
       clipPathUnits="userSpaceOnUse"
       id="clipPath4171">
      <path
         d="m 0,4.60938 310,0 0,480 -310,0 0,-480 z"
         id="path4173" />
    </clipPath>
    <clipPath
       clipPathUnits="userSpaceOnUse"
       id="clipPath4250">
      <path
         d="m 0,4.33984 630,0 0,640 -630,0 0,-640 z"
         id="path4252" />
    </clipPath>
  </defs>
  <metadata
     id="metadata7">
    <rdf:RDF>
      <cc:Work
         rdf:about="">
        <dc:format>image/svg+xml</dc:format>
        <dc:type
           rdf:resource="http://purl.org/dc/dcmitype/StillImage" />
        <dc:title></dc:title>
      </cc:Work>
    </rdf:RDF>
  </metadata>
  <g
     transform="translate(0,-1013.3622)"
     id="layer1">
    <g
       id="g4242"
       transform="matrix(0.61286467,0,0,-0.61286467,0,1052.9751)">
      <g
         id="g4244"
         transform="scale(0.1,0.1)">
        <g
           id="g4246">
          <g
             id="g4248"
             clip-path="url(#clipPath4250)">
            <path
               d="M 64.5313,232.191 C 57.3398,255.469 53.75,280.59 53.75,305.66 c 0,109.301 73.48,202.469 175.629,232.969 l 0,-30.5 134.41,68.121 -134.41,68.09 0,-48.399 C 98.5508,561.91 0,445.43 0,305.66 0,285.941 1.80078,266.211 5.39063,248.32 l 5.34767,28.668 53.793,-44.797 z"
               style="fill:#231f20;fill-opacity:1;fill-rule:nonzero;stroke:none"
               id="path4254" />
            <path
               d="m 503.551,262.66 -8.981,-150.551 125.469,82.422 -41.211,25.117 c 8.942,26.872 12.543,55.551 12.543,86.012 0,129.031 -84.223,238.32 -198.91,279.539 l 21.488,-16.14 -64.5,-26.868 c 107.5,-25.082 188.172,-121.839 188.172,-236.531 0,-19.719 -3.601,-39.41 -7.191,-57.34 l -26.879,14.34 z"
               style="fill:#231f20;fill-opacity:1;fill-rule:nonzero;stroke:none"
               id="path4256" />
            <path
               d="M 474.879,142.578 C 430.078,94.1797 367.34,63.7109 295.66,63.7109 c -64.488,0 -123.629,26.918 -166.64,68.1291 L 155.898,146.172 30.4688,228.59 39.4102,78.0898 80.6211,103.16 C 134.41,45.8203 211.449,10 295.66,10 c 73.481,0 139.809,26.8789 191.762,71.6797 l -21.481,-7.1914 8.938,68.0897 z"
               style="fill:#231f20;fill-opacity:1;fill-rule:nonzero;stroke:none"
               id="path4258" />
            <path
               d="m 275.98,474.102 0,-39.411 c -44.808,-8.992 -69.89,-37.66 -69.89,-73.48 0,-39.449 30.469,-60.941 73.48,-75.27 30.469,-10.781 43.008,-19.73 43.008,-35.863 0,-16.098 -16.168,-25.078 -39.457,-25.078 -26.871,0 -50.152,8.98 -68.082,17.93 L 202.5,194.531 c 16.129,-8.941 43.012,-16.133 69.879,-17.89 l 0,-39.45 41.211,0 0,43.008 c 46.609,8.942 73.48,39.41 73.48,75.27 0,37.621 -19.73,59.14 -68.09,77.031 -35.859,12.539 -50.191,21.52 -50.191,35.859 0,10.743 8.981,23.282 35.859,23.282 30.473,0 48.364,-8.981 59.141,-14.34 l 12.539,46.609 c -14.34,7.141 -32.269,12.539 -59.137,14.328 l 0,35.821 -41.211,0.043 z"
               style="fill:#231f20;fill-opacity:1;fill-rule:nonzero;stroke:none"
               id="path4260" />
          </g>
        </g>
      </g>
    </g>
  </g>
</svg>
