<?xml version="1.0" encoding="UTF-8" standalone="no"?>
<svg
   xmlns:dc="http://purl.org/dc/elements/1.1/"
   xmlns:cc="http://creativecommons.org/ns#"
   xmlns:rdf="http://www.w3.org/1999/02/22-rdf-syntax-ns#"
   xmlns:svg="http://www.w3.org/2000/svg"
   xmlns="http://www.w3.org/2000/svg"
   version="1.1"
   id="svg2"
   viewBox="0 0 32 48.000001"
   height="48"
   width="32">
  <defs
     id="defs4">
    <clipPath
       clipPathUnits="userSpaceOnUse"
       id="clipPath4171">
      <path
         d="m 0,4.60938 310,0 0,480 -310,0 0,-480 z"
         id="path4173" />
    </clipPath>
  </defs>
  <metadata
     id="metadata7">
    <rdf:RDF>
      <cc:Work
         rdf:about="">
        <dc:format>image/svg+xml</dc:format>
        <dc:type
           rdf:resource="http://purl.org/dc/dcmitype/StillImage" />
        <dc:title></dc:title>
      </cc:Work>
    </rdf:RDF>
  </metadata>
  <g
     transform="translate(0,-1004.3622)"
     id="layer1">
    <g
       id="g4163"
       transform="matrix(1.0376135,0,0,-1.0376135,0,1053.3989)">
      <g
         id="g4165"
         transform="scale(0.1,0.1)">
        <g
           id="g4167">
          <g
             id="g4169"
             clip-path="url(#clipPath4171)">
            <path
               d="m 258.711,53.4805 c 0,1.1289 -0.039,2.2578 -0.039,3.4297 -8.594,-1.8711 -23.242,-4.3711 -39.332,-4.3711 -31.328,0 -53.32,9.3711 -65.121,27.3007 C 142.422,61.9102 120.43,52.5391 89.1016,52.5391 73.8711,52.5391 60,54.8008 51.25,56.6016 c -0.1992,-2.2618 -0.3516,-4.6524 -0.5508,-7.1133 0.1992,-0.7774 0.3906,-1.6367 0.5899,-2.3399 2.0703,-7.6992 3.1992,-13.5976 -1.5977,-18.5195 -0.043,-2.5391 0,-4.8008 0.1094,-6.4375 0.8984,-11.4922 63.6402,-11.9609 76.6092,-11.9609 13,0 24.641,1.8008 60.469,0 35.851,-1.75003 69.883,6.289 71.242,18.3984 0,0.1602 0,0.3906 0.039,0.5899 -4.18,4.7617 -3.039,10.5117 -1.051,17.9296 0.551,1.8711 1.09,4.0625 1.602,6.3321 z"
               style="fill:#231f20;fill-opacity:1;fill-rule:nonzero;stroke:none"
               id="path4175" />
            <path
               d="m 162.852,324.691 c -1.993,-7.89 -3.793,-16.101 -5.391,-24.57 0.43,-2.391 0.859,-4.769 1.289,-7.191 8.949,15.82 36.801,75.39 38.672,80.511 2.348,6.399 13.047,34.219 18.476,43.239 2.813,4.648 3.442,7.031 3.551,7.968 L 205,438.32 l 13.629,5.2 c 3.012,8.082 -3.277,16.671 -5.699,19.57 -5.078,3.039 -9.84,7.219 -12.852,13.238 -1.598,3.16 -3.519,5.942 -5.43,8.242 1.68,-20.511 -9.957,-72.769 -30.668,-155.308 l -1.128,-4.571 z"
               style="fill:#231f20;fill-opacity:1;fill-rule:nonzero;stroke:none"
               id="path4177" />
            <path
               d="m 273.59,441.289 c -3.121,0.621 -6.711,1.332 -10.07,3.672 -7.309,5.039 -22.5,8.828 -28.25,10.269 l -2.032,0.469 c -2.457,0.551 -5.968,1.41 -9.84,2.699 2.422,-5.308 3.793,-12.07 0.512,-18.789 l -0.551,-1.129 -6.597,-2.5 7.929,-7.582 c 2.219,-2.929 0.969,-7.847 -3.281,-15 -4.851,-8.007 -14.851,-33.707 -17.969,-42.148 -2.031,-5.551 -31.961,-69.609 -40.16,-83.281 -1.133,-1.84 -2.07,-3.36 -2.972,-4.77 0.902,-5.66 1.722,-11.398 2.421,-17.258 0.321,-2 0.59,-4.222 0.86,-6.921 l -0.039,0 c 5.59,-49.329 5.828,-103.321 0.078,-151.95 -0.617,-5.429 -1.828,-10.4294 -3.469,-15.0817 -0.711,-1.9883 -1.488,-3.9375 -2.39,-5.7774 10.082,-18.0898 30.671,-27.2695 61.57,-27.2695 16.398,0 31.25,2.6992 39.289,4.5 0.43,0.0781 0.98,0.1875 1.371,0.3086 0.391,5.5117 0.551,12.6914 0.551,21.3711 -1.41,11.0078 -3.52,23.5509 -5.199,30.8989 -1.832,7.96 -2.93,14.601 -4.301,23.039 -1.129,6.722 -2.379,14.57 -4.41,25.16 -4.532,24.019 -6.602,35.23 -7.5,49.332 -0.391,6.097 -1.09,12.187 -1.801,17.777 -0.891,7.543 -1.68,14.024 -1.481,18.981 0.231,7.07 -0.16,14.769 -0.468,20.39 l -0.121,2.66 c -0.231,4.141 1.57,9.692 3.679,16.129 1.281,4.032 2.61,8.172 3.551,12.192 l 0.859,3.98 c 2.34,10.629 3.981,18.281 9.141,18.281 2.969,0 4.609,-2.812 5.16,-3.75 5.391,-9.332 8.899,-72.179 6.36,-95.39 -2.649,-24.449 1.449,-92.891 1.8,-96.75 0.2,-2.031 1.168,-23.172 1.129,-42.9299 1.102,-8.25 2.27,-19.5 1.531,-23.8711 l -0.32,-1.9883 -2.18,-0.6328 c -0.242,-2.1484 -0.511,-4.0195 -0.82,-5.5391 -0.59,-2.8203 -1.25,-5.3203 -1.879,-7.5781 -2.812,-10.4726 -3.551,-13.2422 11.098,-18.0117 4.293,-1.3711 8.672,-2.1094 13.082,-2.1094 9.73,0 17.148,3.4805 20.078,5.0782 C 313.48,328.398 286.84,423.629 283.75,433.52 c -1.871,6.128 -5.16,6.789 -10.16,7.769 z"
               style="fill:#231f20;fill-opacity:1;fill-rule:nonzero;stroke:none"
               id="path4179" />
            <path
               d="m 45.1211,45.4688 c -0.6328,2.2617 -1.293,4.8007 -1.8828,7.582 -0.3086,1.5195 -0.5781,3.3906 -0.8164,5.539 l -0.1914,0.0821 -1.961,0.5469 -0.3476,2.0312 c -0.7031,4.3711 0.4687,15.6211 1.5586,24.2617 -0.0313,19.4493 0.9414,40.5083 1.0976,42.5393 0.3516,3.859 4.4102,72.5 1.8008,96.719 -2.5,23.199 1.0117,86.089 6.4024,95.39 0.5468,0.93 2.1484,3.75 5.1601,3.75 5.1484,0 6.7891,-7.66 9.0977,-18.32 l 0.8593,-3.949 c 0.9414,-4.02 2.3008,-8.161 3.5899,-12.192 2.0703,-6.437 3.8711,-11.949 3.6719,-16.129 l -0.1485,-2.582 c -0.2812,-5.617 -0.7109,-13.359 -0.4726,-20.429 0.1914,-4.957 -0.5899,-11.481 -1.4883,-18.981 -0.6602,-5.629 -1.4024,-11.719 -1.7891,-17.777 -0.9023,-14.18 -2.9336,-25.352 -7.5,-49.371 -1.9922,-10.551 -3.2812,-18.399 -4.3828,-25.16 -1.3984,-8.399 -2.5,-15.04 -4.2891,-23.04 -1.6796,-7.308 -3.789,-19.8902 -5.2812,-31.2886 0.043,-8.3203 0.2422,-15.4297 0.5898,-20.9805 1.0118,-0.2304 2.1133,-0.4726 3.3633,-0.7421 8.3985,-1.7579 22.2188,-4.0274 37.2969,-4.0586 l 0.043,0 c 30.8984,0 51.4494,9.1796 61.5194,27.3007 0.707,1.211 1.141,2.6602 1.758,3.9805 0.199,0.4688 0.391,0.9805 0.59,1.4492 0.429,1.0196 0.902,1.9492 1.25,2.9688 1.371,4.1015 2.5,8.4026 3.051,13.1996 5.929,50.55 5.429,106.921 -0.942,157.66 -0.469,3.121 -1.019,5.472 -1.719,7.422 -0.347,0.98 -0.738,1.879 -1.211,2.769 -0.699,1.41 -1.519,2.82 -2.539,4.418 0,0 0,0 0,0.043 -0.347,0.5 -0.66,0.969 -1.019,1.559 -0.461,0.781 -1.012,1.64 -1.602,2.539 -0.699,1.09 -1.476,2.34 -2.297,3.711 -8.242,13.75 -38.132,77.769 -40.16,83.281 -3.121,8.437 -13.1599,34.141 -17.9724,42.148 -4.2891,7.153 -5.5078,12.071 -3.668,14.61 l 8.3203,7.972 -6.6015,2.539 -0.5508,1.129 c -3.3203,6.832 -1.8281,13.711 0.6328,19.063 -4.2226,-1.481 -8.1328,-2.383 -10.7422,-3.012 l -2.0781,-0.469 c -5.6992,-1.441 -20.9297,-5.23 -28.1992,-10.269 -3.4024,-2.301 -6.9531,-3.012 -10.1211,-3.633 -4.961,-0.98 -8.2422,-1.641 -10.1524,-7.769 C 21.5586,423.59 -5.07813,328.359 0.859375,30.4688 3.78906,28.8281 11.2109,25.3906 20.9805,25.3906 c 4.3711,0 8.789,0.6992 13.0781,2.0703 14.6523,4.7696 13.8711,7.5782 11.0625,18.0079 z M 140.16,253.281 c 1.442,0 2.77,-0.429 3.981,-1.09 1.168,-0.632 2.148,-1.531 2.929,-2.582 1.02,-1.449 1.758,-3.089 1.758,-5 0,-2.461 -1.098,-4.687 -2.777,-6.25 -0.93,-0.898 -2.071,-1.488 -3.352,-1.879 -0.82,-0.269 -1.648,-0.5 -2.539,-0.5 -4.808,0 -8.68,3.86 -8.68,8.629 0,4.801 3.872,8.672 8.68,8.672 z m 0,-48.011 c 0.27,0 0.5,-0.11 0.82,-0.149 1.129,-0.121 2.18,-0.43 3.161,-0.941 1.289,-0.66 2.339,-1.68 3.129,-2.93 0.89,-1.328 1.519,-2.891 1.519,-4.648 0,-1.872 -0.699,-3.551 -1.758,-4.961 -0.859,-1.172 -1.91,-2.192 -3.242,-2.813 -0.98,-0.469 -2.027,-0.707 -3.168,-0.777 -0.152,0 -0.312,-0.121 -0.461,-0.121 -4.808,0 -8.68,3.91 -8.68,8.672 0,4.808 3.872,8.668 8.68,8.668 z m 0,-50.661 c 0.352,0 0.66,-0.16 1.012,-0.199 1.168,-0.148 2.226,-0.469 3.207,-1.051 1.402,-0.82 2.57,-1.988 3.351,-3.437 0.629,-1.211 1.059,-2.5 1.059,-3.981 0,-1.14 -0.238,-2.269 -0.668,-3.281 -0.582,-1.488 -1.711,-2.66 -3,-3.601 -0.941,-0.661 -1.961,-1.129 -3.09,-1.399 -0.621,-0.121 -1.211,-0.39 -1.91,-0.39 -4.769,0 -8.641,3.902 -8.641,8.671 0,4.797 3.872,8.668 8.68,8.668 z"
               style="fill:#231f20;fill-opacity:1;fill-rule:nonzero;stroke:none"
               id="path4181" />
            <path
               d="m 108.359,476.328 c -2.66,-5.348 -6.757,-9.297 -11.2496,-12.226 -0.4297,-0.512 -10.1211,-10.981 -6.5196,-20.582 l 13.6292,-5.2 -14.4495,-13.75 c 0.1524,-0.941 0.8203,-3.32 3.5508,-7.89 5.4297,-9.02 16.1287,-36.84 18.4807,-43.239 1.828,-4.961 28.508,-62.031 38.078,-79.421 0.551,-1.051 1.101,-2.032 1.57,-2.731 0.313,-0.59 0.582,-1.019 0.891,-1.519 0.238,-0.36 0.43,-0.711 0.629,-1.02 -0.117,0.781 -0.27,1.52 -0.391,2.27 -0.547,3.039 -1.058,6.128 -1.598,9.101 -1.64,8.469 -3.441,16.68 -5.39,24.57 l -1.18,4.571 c -20.66,82.578 -32.34,134.879 -30.621,155.347 -1.91,-2.339 -3.867,-5.121 -5.43,-8.281 z"
               style="fill:#231f20;fill-opacity:1;fill-rule:nonzero;stroke:none"
               id="path4183" />
          </g>
        </g>
      </g>
    </g>
  </g>
</svg>
