<?xml version="1.0" encoding="UTF-8" standalone="no"?>
<svg
   xmlns:dc="http://purl.org/dc/elements/1.1/"
   xmlns:cc="http://creativecommons.org/ns#"
   xmlns:rdf="http://www.w3.org/1999/02/22-rdf-syntax-ns#"
   xmlns:svg="http://www.w3.org/2000/svg"
   xmlns="http://www.w3.org/2000/svg"
   width="32"
   height="43"
   viewBox="0 0 32 43.000001"
   id="svg2"
   version="1.1">
  <defs
     id="defs4">
    <clipPath
       id="clipPath4171"
       clipPathUnits="userSpaceOnUse">
      <path
         id="path4173"
         d="m 0,5.28906 660,0 0,660 -660,0 0,-660 z" />
    </clipPath>
    <clipPath
       clipPathUnits="userSpaceOnUse"
       id="clipPath4872">
      <path
         d="M 0,6 600,6 600,826 0,826 0,6 Z"
         id="path4874" />
    </clipPath>
  </defs>
  <metadata
     id="metadata7">
    <rdf:RDF>
      <cc:Work
         rdf:about="">
        <dc:format>image/svg+xml</dc:format>
        <dc:type
           rdf:resource="http://purl.org/dc/dcmitype/StillImage" />
        <dc:title></dc:title>
      </cc:Work>
    </rdf:RDF>
  </metadata>
  <g
     style="fill:#524e4f;fill-opacity:1"
     id="g4864"
     transform="matrix(0.52694817,0,0,-0.52694817,0.40448904,43.525919)">
    <g
       style="fill:#524e4f;fill-opacity:1"
       id="g4866"
       transform="scale(0.1,0.1)">
      <g
         style="fill:#524e4f;fill-opacity:1"
         id="g4868">
        <g
           style="fill:#524e4f;fill-opacity:1"
           id="g4870"
           clip-path="url(#clipPath4872)">
          <path
             d="m 436.91,213.031 c -9.57,0 -15,-0.781 -17.851,-1.332 l 0,-48.039 15.511,0 c 19.649,0 31.289,9.84 31.289,25.07 0,16.02 -10.859,24.032 -28.949,24.301 z"
             style="fill:#524e4f;fill-opacity:1;fill-rule:nonzero;stroke:none"
             id="path4876" />
          <path
             d="m 591.84,630.449 c -0.039,3.75 -1.219,7.422 -3.789,10.352 l -157.352,179.73 c -0.039,0.039 -0.078,0.078 -0.109,0.117 -0.942,1.051 -2.039,1.911 -3.211,2.653 -0.309,0.238 -0.66,0.429 -1.008,0.629 -1.019,0.55 -2.07,1.019 -3.172,1.332 -0.308,0.078 -0.578,0.187 -0.859,0.269 -1.211,0.27 -2.418,0.469 -3.668,0.469 L 31.9883,826 C 14.3789,826 0,811.621 0,794.012 L 0,42.0195 C 0,24.3594 14.3789,9.98047 31.9883,9.98047 l 528.0117,0 c 17.66,0 31.988,14.37893 31.988,32.03903 l 0,586.6405 c 0,0.578 -0.078,1.211 -0.148,1.789 z M 177.578,96.7813 c 11.871,0 25.082,2.5781 32.813,5.6677 l 5.937,-30.7498 c -7.226,-3.6289 -23.519,-7.5 -44.687,-7.5 -60.192,0 -91.2113,37.4608 -91.2113,87.0708 0,59.421 42.3793,92.5 95.0823,92.5 20.429,0 35.898,-4.141 42.886,-7.77 l -8.007,-31.25 c -8.012,3.359 -19.141,6.449 -33.051,6.449 -31.289,0 -55.539,-18.828 -55.539,-57.578 -0.039,-34.891 20.621,-56.8397 55.777,-56.8397 z m 175.621,-30 -111.051,0 0,174.1407 107.461,0 0,-32.301 -67.968,0 0,-36.172 64.097,0 0,-32.039 -64.097,0 0,-41.3202 71.558,0 0,-32.3085 z m 118.051,0 c -2.809,4.9179 -6.949,19.1406 -12.148,40.5897 -4.653,21.68 -12.114,27.609 -28.122,27.891 l -11.921,0 0,-68.4807 -38.981,0 0,171.7967 c 12.652,2.07 31.524,3.633 52.422,3.633 25.859,0 43.91,-3.871 56.328,-13.711 10.352,-8.238 16.012,-20.391 16.012,-36.41 0,-22.219 -15.738,-37.461 -30.738,-42.891 l 0,-0.777 c 12.148,-4.883 18.867,-16.524 23.238,-32.543 5.43,-19.6485 10.859,-42.379 14.219,-49.0977 l -40.309,0 z M 31.9883,282.641 l 0,511.371 370.6717,0 0,-163.75 c 0,-8.832 7.18,-15.981 16.012,-15.981 l 141.328,0 0,-331.64 -528.0117,0 z"
             style="fill:#524e4f;fill-opacity:1;fill-rule:nonzero;stroke:none"
             id="path4878" />
          <path
             d="m 422.422,601.199 c 0,9.531 -5,17.852 -12.5,22.653 4.418,7.226 5.387,16.367 1.758,24.726 l -4.489,10.231 c -2.812,6.531 -7.929,11.25 -13.992,13.871 -0.269,6.48 -2.808,12.851 -7.769,17.769 l -7.891,7.93 c -6.367,6.371 -15.16,8.832 -23.398,7.461 -1.68,8.789 -7.582,16.531 -16.52,20.039 l -10.391,4.101 c -7.39,2.891 -15.199,2.231 -21.761,-1.011 -4.688,3.941 -10.59,6.402 -17.188,6.402 l -11.211,0 c -8.281,0 -15.621,-3.82 -20.55,-9.723 -7.379,5.082 -17.11,6.403 -25.899,2.543 l -10.269,-4.461 c -7.774,-3.39 -13.012,-10.031 -15.082,-17.609 -6.36,-0.351 -12.61,-2.891 -17.461,-7.742 l -7.93,-7.93 c -5.5,-5.469 -8.039,-12.769 -7.77,-20 -8.281,-1.949 -15.468,-7.769 -18.828,-16.289 l -4.101,-10.43 c -3.129,-7.96 -2.071,-16.441 1.871,-23.281 -5,-4.879 -8.16,-11.679 -8.16,-19.25 l 0,-11.179 c 0,-7.93 3.48,-14.961 8.91,-19.879 -3.563,-6.911 -4.18,-15.313 -0.821,-23.012 l 4.45,-10.27 c 3.281,-7.461 9.57,-12.621 16.8,-14.808 -0.671,-7.653 1.829,-15.461 7.649,-21.281 l 7.93,-7.93 c 5.98,-6.02 14.14,-8.481 21.992,-7.578 2.621,-6.801 7.898,-12.543 15.199,-15.434 l 1.641,-0.629 -72.969,-122.418 55.547,30.469 c 0,0 14.332,-90.512 14.332,-87.809 0,2.149 33.211,121.438 46.058,167.5 2.34,-0.711 4.84,-1.101 7.461,-1.101 l 4.649,0 54.691,-145.82 0,76.179 52.891,-35.859 -47.891,121.25 0.891,0.39 c 6.219,2.692 10.789,7.54 13.48,13.239 7.77,-0.821 15.821,1.64 21.758,7.582 l 7.891,7.929 c 6.84,6.829 9.179,16.399 7.109,25.149 7.422,2.391 13.75,7.851 16.84,15.672 l 4.101,10.39 c 2.418,6.168 2.258,12.61 0.309,18.43 5.27,4.891 8.633,11.84 8.633,19.649 l 0,11.179 z M 282.66,499.98 c -52.82,0 -95.629,42.821 -95.629,95.629 0,52.813 42.809,95.621 95.629,95.621 52.809,0 95.621,-42.808 95.621,-95.621 0,-52.808 -42.812,-95.629 -95.621,-95.629 z"
             style="fill:#524e4f;fill-opacity:1;fill-rule:nonzero;stroke:none"
             id="path4880" />
        </g>
      </g>
    </g>
  </g>
</svg>
