<?xml version="1.0" encoding="UTF-8" standalone="no"?>
<svg
   xmlns:dc="http://purl.org/dc/elements/1.1/"
   xmlns:cc="http://creativecommons.org/ns#"
   xmlns:rdf="http://www.w3.org/1999/02/22-rdf-syntax-ns#"
   xmlns:svg="http://www.w3.org/2000/svg"
   xmlns="http://www.w3.org/2000/svg"
   version="1.1"
   id="svg3914"
   viewBox="0 0 40.000001 28.000001"
   height="28"
   width="40">
  <defs
     id="defs3916">
    <clipPath
       clipPathUnits="userSpaceOnUse"
       id="clipPath3973">
      <path
         d="m 0,2.73047 3680,0 0,3370.00003 -3680,0 L 0,2.73047 Z"
         id="path3975" />
    </clipPath>
    <clipPath
       clipPathUnits="userSpaceOnUse"
       id="clipPath4198">
      <path
         d="m 0,0.578125 2320,0 0,1569.999975 -2320,0 L 0,0.578125 Z"
         id="path4200" />
    </clipPath>
  </defs>
  <metadata
     id="metadata3919">
    <rdf:RDF>
      <cc:Work
         rdf:about="">
        <dc:format>image/svg+xml</dc:format>
        <dc:type
           rdf:resource="http://purl.org/dc/dcmitype/StillImage" />
        <dc:title></dc:title>
      </cc:Work>
    </rdf:RDF>
  </metadata>
  <g
     transform="translate(0,-1024.3622)"
     id="layer1">
    <g
       id="g4190"
       transform="matrix(0.17241379,0,0,-0.17241379,0,1051.9161)">
      <g
         id="g4192"
         transform="scale(0.1,0.1)">
        <g
           id="g4194">
          <g
             id="g4196"
             clip-path="url(#clipPath4198)">
            <path
               d="m 1120,1570.58 c -132.27,0 -240,-107.73 -240,-240 -0.309,-22.07 17.34,-40.27 39.41,-40.59 22.11,-0.31 40.281,17.35 40.59,39.46 0,0.39 0,0.74 0,1.13 0,89.34 70.66,160 160,160 85.04,0 152.42,-64.3 158.75,-147.5 l -150,-187.5 c -5.66,-7.11 -8.75,-15.94 -8.75,-25 L 1120,954.531 21.0898,365.852 C 8.12109,358.859 0,345.309 0,330.578 l 0,-200 C 0,108.512 17.9297,90.5781 40,90.5781 l 520,0 0,-40 C 559.691,28.5117 577.34,10.3086 599.41,9.98828 621.52,9.67969 639.691,27.3398 640,49.4492 c 0,0.3906 0,0.7422 0,1.1289 l 0,40 1040,0 0,-40 c -0.31,-22.1093 17.34,-40.2695 39.41,-40.58982 22.11,-0.30859 40.28,17.35152 40.59,39.46092 0,0.3516 0,0.7422 0,1.1289 l 0,40 520,0 c 22.07,0 40,17.8909 40,39.9999 l 0,200 c 0,14.731 -8.12,28.281 -21.09,35.231 L 1200,954.531 l 0,162.029 151.25,189.02 c 5.66,7.11 8.75,15.9 8.75,25 0,132.27 -107.73,240 -240,240 z m 0,-120 c -66.05,0 -120,-53.95 -120,-120 -0.16,-11.05 8.67,-20.12 19.73,-20.27 11.05,-0.16 20.11,8.67 20.27,19.72 l 0,0.55 c 0,44.41 35.59,80 80,80 11.05,-0.16 20.12,8.67 20.27,19.73 0.16,11.05 -8.67,20.11 -19.72,20.27 -0.16,0 -0.35,0 -0.55,0 z m 40,-565.389 1080,-578.562 0,-136.051 -480,0 0,40 c 0.31,22.07 -17.34,40.274 -39.41,40.594 -0.39,0 -0.82,0 -1.21,0 -22.08,-0.363 -39.69,-18.524 -39.38,-40.594 l 0,-40 -1040,0 0,40 c 0.309,22.07 -17.34,40.274 -39.41,40.594 -0.391,0 -0.82,0 -1.211,0 C 577.301,250.809 559.691,232.648 560,210.578 l 0,-40 -480,0 0,136.051 1080,578.562 z m -0.12,-70.632 c -11.05,0.082 -20.08,-8.821 -20.11,-19.879 -0.08,-7.5 4.1,-14.41 10.78,-17.852 l 1000,-535.738 c 9.68,-5.352 21.83,-1.879 27.22,7.769 5.35,9.692 1.88,21.84 -7.77,27.231 -0.2,0.082 -0.39,0.191 -0.59,0.269 l -1000,535.743 c -2.89,1.609 -6.17,2.457 -9.53,2.457 z"
               style="fill:#524e4f;fill-opacity:1;fill-rule:nonzero;stroke:none"
               id="path4202" />
          </g>
        </g>
      </g>
    </g>
  </g>
</svg>
